<svg xmlns="http://www.w3.org/2000/svg" viewBox="0 0 64 64" width="64" height="64">
  <path fill="#0a5078" d="M22 56H6a2 2 0 0 1-2-2V44a2 2 0 0 1 2-2h16a2 2 0 0 1 2 2v10a2 2 0 0 1-2 2z" />
  <path fill="#00a0c8" d="M21 54H7a1 1 0 0 1-1-1v-8a1 1 0 0 1 1-1h14a1 1 0 0 1 1 1v8a1 1 0 0 1-1 1z" />
  <path fill="#0a5078" d="M12 56h4v4h-4z" />
  <path fill="#0a5078" d="M18 58h-8a2 2 0 0 0-2 2h12a2 2 0 0 0-2-2z" />
  <path fill="#00325a" d="M12 56h4v1h-4z" />
  <path fill="#00a0c8" d="M54 20h-2.684c.442-1.251.684-2.597.684-4 0-6.627-5.373-12-12-12-6.215 0-11.327 4.725-11.939 10.779A8 8 0 0 0 14 20h-4a6 6 0 1 0 0 12h44a6 6 0 1 0 0-12z" />
  <path fill="#0082aa" d="M50 24a4 4 0 0 0-8 0 8 8 0 0 0-16 0 4 4 0 0 0 0 8h24a4 4 0 0 0 0-8z" />
  <path fill="#00a0c8" d="M35 56h-6a1 1 0 0 1-1-1V43a1 1 0 0 1 1-1h6a1 1 0 0 1 1 1v12a1 1 0 0 1-1 1z" />
  <path fill="#0a5078" d="M58 58H42a2 2 0 0 1-2-2V46a2 2 0 0 1 2-2h16a2 2 0 0 1 2 2v10a2 2 0 0 1-2 2z" />
  <path fill="#00a0c8" d="M57 56H43a1 1 0 0 1-1-1v-8a1 1 0 0 1 1-1h14a1 1 0 0 1 1 1v8a1 1 0 0 1-1 1zM59 60H41a1 1 0 0 1 0-2h18a1 1 0 0 1 0 2z" />
  <path fill="#0a5078" d="M28 44h8v10h-8z" />
  <path fill="#0082aa" d="M52 60h-4l-2-2h8z" />
  <path fill="#c80a50" d="M15 42h-2v-2c0-1.654 1.346-3 3-3h4c.551 0 1-.449 1-1v-4h2v4c0 1.654-1.346 3-3 3h-4c-.551 0-1 .449-1 1zM51 44h-2v-4c0-.551-.449-1-1-1h-4c-1.654 0-3-1.346-3-3v-4h2v4c0 .551.449 1 1 1h4c1.654 0 3 1.346 3 3zM31 32h2v10h-2z" />
  <path fill="#a00028" d="M21 32h2v1h-2zM31 32h2v1h-2zM41 32h2v1h-2z" />
</svg>
